<svg version="1.1" id="Layer_1" xmlns="http://www.w3.org/2000/svg" xmlns:xlink="http://www.w3.org/1999/xlink" x="0px" y="0px"
	 width="940px" height="358px" viewBox="-120.1 0 940 358" style="enable-background:new -120.1 0 940 358;"
	 xml:space="preserve">
<defs>
		<linearGradient id="GoodGradient" x1="100%" y1="100%">
          <stop offset="0%" stop-color="#129abd" stop-opacity=".7">
            <animate attributeName="stop-color" values="#129abd;white;#ef4b36;#ef4b36;white;#ef4b36;#ef4b36;#129abd;#129abd" dur="10s" repeatCount="indefinite" />
          </stop>
          <stop offset="100%" stop-color="#129abd" stop-opacity=".7">
            <animate attributeName="stop-color" values="#129abd;#ef4b36;#129abd;#129abd;white;#ef4b36;#ef4b36;white;#129abd" dur="10s" repeatCount="indefinite" />
            <animate attributeName="offset" values=".95;.80;.60;.40;.20;0;.20;.40;.60;.80;.95" dur="10s" repeatCount="indefinite" />
          </stop>
        </linearGradient>
 </defs>
<g fill="url(#GoodGradient)">
	<path d="M337.9,109.9c-3.7-2.4-3.9-3.2-0.4-5.9c1.6-1.3,4.2-2.6,3.5-4.9c-1.3-4.6,1.2-7,4.1-9.6
		c0.8-0.7,1.6-1.7,1.8-2.6c1.2-6,3.2-11.7,2.3-18.2c-1.6-11.7-7.6-19.2-18.9-22.2c-6.4-1.7-13-1.5-19.4,0
		c-16.3,3.8-28.7,12.6-36.5,27.9c-4.2,8.1-6.3,16.7-8.6,25.3c-9.2,34.8-18.1,69.5-27.3,104.2c-4.6,17.4-10.3,34.5-13.2,52.4
		c-1.7,10.9,0.2,21.3,7.3,30.2c6.5,8.3,15.6,10.3,26.5,10.4c8.4,0.3,15.9-3.4,23.1-9.6c9.7-8.5,16.2-18.4,19.1-31
		c6.7-28.5,15.1-56.4,22.9-84.7c5.2-18.6,10.6-37.2,15.2-55.9C340,113.2,339.9,111.1,337.9,109.9z M323.4,81.1
		c-4.7,18.2-9.5,36.2-14.3,54.3c-9.5,35.9-19.1,71.7-28.6,107.6c-1.7,6.6-3.1,13.3-6.3,19.3c-2.6,5-6.2,9-12,10.4
		c-7.7,1.9-15.4-4.8-14.4-12.8c1.1-8.7,3.9-17,6.4-25.4c8-27.5,15-55.3,22.7-82.9c5.8-20.9,10.8-42.1,17.2-62.8
		c1.4-4.7,3.3-9.2,6.2-13.2c3.4-4.6,8-6.5,12.8-6.7C321,69.1,325.2,74,323.4,81.1z"/>
	<path d="M550.2,109c-1.2,0.5-1.9,0.7-2.5,1.1c-1.1,0.5-1.7,2.7-3.1,1.4c-0.9-0.9,0.4-2.4,1-3.5
		c0.6-1.1,1.6-2.1,2.4-3.2c1.8-2.3,4.6-4.1,3.6-7.6c-2.1,0.6-3.4,4.5-5.2,2.6c-1.4-1.6,1.6-3.7,3.2-4.7c5.9-3.7,7.2-9.6,8.4-15.7
		c0.2-1.2-0.1-2.3-0.9-2.9c-0.8-0.8-1.7,0.3-2.6,0.6c-1.4,0.4-2.7,2.8-3.9,1.2c-1.1-1.5,1.2-2.7,2.3-3.9c0.2-0.3,0.6-0.5,0.9-0.6
		c2.9-1.4,2.7-3.4,1.7-6c-1.6-3.8-4.1-6.8-6.7-9.9c-6.4-7.5-13.8-12-23.5-12.9c-10.2-0.9-20.3,0.3-30.4-0.1c-3.4-0.1-5,1.2-5.6,4.4
		c-0.4,2.4-1.3,4.8-1.9,7.3c-14.5,54.8-29.1,109.6-43.5,164.4c-6.4,24.1-12.6,48.2-19,72.3c-0.8,2.9-0.4,3.7,2.7,3.7
		c7.5-0.1,15,0.4,22.6,0.2c3.8-0.1,7.7,0.2,11.4-0.8c11.7-3.2,21.7-9.6,30.5-17.9c12.3-11.7,21.8-25.1,26-42
		c8.7-35.2,17.7-70.4,26.5-105.6C546.5,123.7,548.3,116.6,550.2,109z M531.4,94.8c-10.8,42.7-21.6,85.4-32.5,128
		c-4.4,17.2-13,32-27.6,42.8c-3.9,2.9-8.2,4.9-13,5.4c-2.5,0.3-3.7-0.3-2.8-3.2c1.6-5.7,3.1-11.5,4.6-17.2c-1.4-0.6-2.4,1.1-3.9-0.2
		c5.2-3.4,4.7-9.2,5.8-14.4c-0.9-0.5-1.4,1.1-3.1,0.4c5.7-6,7.2-13.6,10.6-20.9c-2.8,0.6-3.1,3.2-5.3,5c0.6-3.1,1.1-5.4,2.6-7.3
		c4.9-6.2,6.8-13.7,8.7-21.2c10.4-40.2,20.9-80.4,31.2-120.6c0.8-3.2,2-4.5,5.3-3.9c2.4,0.5,5,0.5,7.4,0.9c9.5,1.6,13.3,6,13.5,15.8
		C532.9,87.7,532.3,91.3,531.4,94.8z M543.4,84.9c0-1,2.1-3.7,3.1-3.8c0.9,0.1,1.3,0.9,1.1,1.7c-0.2,1.7-0.9,3.2-2.8,3.7
		C543.9,86.6,543.4,85.9,543.4,84.9z"/>
	<path d="M401.9,234.4c2.4-2.5,5.9-5.1,5.9-8.3c0-4,2.4-5.8,4.3-8.3c3.4-4.6,7.4-8.4,9-14.4
		c9.7-37.8,19.7-75.5,29.6-113.2c1.1-4,2.1-8.1,3-12.1c0.3-1.3,1.1-3.3-1.4-3.7c-0.9-0.1-2.1-0.1-2.4-1.1c-0.3-1.2,0.9-1.9,1.8-2.4
		c2.6-1.6,1.2-3.4,0-4.7c-1.3-1.3-3-2.3-5-2.6c-1.6-0.2-3.2-0.9-4.4-2.2c-0.7-0.7-1.7-1.6-0.9-2.8c0.6-1,1.6-0.5,2.6-0.4
		c1.9,0.2,3.5,2.1,6.1,1.5c-0.8-0.5-1.2-0.8-1.7-1.1c-1.3-0.6-3.4-1.7-2.6-2.8c2.6-3.9-1.1-5-2.9-6c-6.4-4-13.3-6-21.1-6.2
		c-16-0.6-36.3,10-42.4,27.7c-4.2,12.4-7,25.1-10.4,37.6c-8.9,33.5-17.8,67.1-26.3,100.8c-4.3,16.9-10.4,33.5-11.2,51.3
		c-0.5,10.5,1.9,19.9,9.9,27.3c7.5,7,16.5,9.6,26.6,8.7c0.6-0.1,2.1,0.3,1.7-1c-1.2-3.5,1.7-3.5,3.4-4c2.3-0.7,4.4-1.6,6.5-2.9
		c7.7-5,13.9-11.7,20.6-17.7c0.9-0.7,1.1-1.8,1.4-2.8c3.6-11.9,6.4-24,10.5-35.7c0.1-0.5,0.4-1.1-0.6-1.6c-2.8,3-7.2,2.8-10.5,5.8
		C400.7,235.4,401.4,235,401.9,234.4z M383.1,258.9c-1.1,4-2.9,7.5-5.4,10.8c-6.5,8.3-19.1,4.5-23.1-2.1c-1.4-2.3-1.4-2.4-1.1-6
		c0.4-11.1,3.9-20.9,6.6-30.9c12.7-48.3,25.7-96.6,38.7-144.9c1.9-7.3,4.7-14.1,11.5-18.4c4.4-2.7,8.7-3.6,13.5-1.2
		c5.1,2.5,6.9,6.7,6.8,12c-0.1,6-2.3,11.5-3.8,17.1C412.1,149.8,397.5,204.4,383.1,258.9z"/>
	<path d="M243.1,85.6c2.3,0.4,3.1-0.9,3.7-2.9c1.3-4.7,0.7-9.5,0-14.2c-1.9-13.5-9.5-21.9-21.8-24.9
		c-15.9-3.9-30,0.4-43,9.3c-11.2,7.7-17.2,19-20.8,31.7c-13,46.7-25.9,93.4-38.8,140c-3.5,12.8-7.4,25.5-5.6,39
		c1.6,11.5,6.4,21.2,16.9,27.2c1.6,0.9,3,1.4,4.6,0.1c2.3-2,5.3-2.7,7.9-4.2c1.6-0.9,2.8-0.9,4.4,0.7c1.4,1.4,3.4,3.3,5.3,2.7
		c4.4-1.5,9-2.2,13.4-3.7c0.9-0.4,1.8-0.8,2.7-0.3c2.7,1.4,3.4-0.2,4.3-2.4c1.6-4.7,4.4-8.8,8.1-12.1c3.1-2.8,6.9-5,8.4-9.3
		c0.1-0.5,0.8-1.1,1.3-1.1c2-0.4,2.4-1.9,2.9-3.7c2.7-10.2,5.4-20.3,8-30.4c5.4-20.5,10.9-41,16.5-61.5c0.7-2.7,0.1-3.4-2.6-3.4
		c-5.4,0.1-10.7,0.1-17.3,0.1c-5.3,0.3-11.7-0.4-18.2,0.4c-1.7,0.2-2.4,0.8-2.9,2.5c-1.5,5.7-3.1,11.5-4.7,17.2
		c-0.6,1.9-0.1,2.9,2.1,2.9c3.7,0,7.4,0.1,11.1,0.2c4.7,0.1,4.7,0.1,3.4,4.6c-5.9,20.4-11.7,40.8-17.6,61.3
		c-1.7,6-4.3,11.6-8.3,16.5c-7.4,9.1-18.5,5.8-23.6-0.4c-4.4-5.5-5.1-11.6-3.6-17.9c2.2-9.6,4.9-19,7.4-28.4
		c11.1-40.6,22.3-81,33.5-121.5c2.3-8.4,4.4-16.8,10.1-23.8c3.7-4.6,7.9-8.3,13.5-10.1c12.3-4,21.8,4,19.4,16.7
		c-0.4,2.2,0.2,2.4,2,2.4C231.2,84.9,237.2,84.7,243.1,85.6z"/>
	<path d="M612.9,45.8c-5.6-0.2-11.2,0-16.8-0.5c-3.3-0.3-4.4,1-5.2,3.9c-2.4,10.2-4.9,20.4-7.3,30.6
		c-11.4,48.2-22.8,96.3-34.2,144.5c-2.3,9.6-4.4,19.3-6.5,29c-0.3,1.2-1.5,3.2,1.4,3.3c4.1,0.1,8.3,0.4,12.5,0.6
		c1.5,0.1,2.4-0.4,2.9-1.9c2.6-7.2,3.9-14.7,6.6-21.9c0.9-2.5,1.3-3.8,4.3-4.2c-2.8-0.4-2.8-1.7-2.5-4c0.6-5.4,3.1-10.1,4.5-15.2
		c6.4-23.3,12.8-46.6,19.3-69.9c2.1-7.7,4.1-15.4,6.4-23.1c6.6-21.8,12.4-43.8,18.5-65.7C618.1,47,617.3,46,612.9,45.8z"/>
	<path d="M550.4,274.8c-3.6-3.2-7.9-3.5-11.8-1c-5.1,3.3-7.8,9.6-6.1,14.4c1.1,3.3,3.2,6,6.6,7
		c8,2.7,14.3-2.7,14.4-12.1C553.5,280,553,277,550.4,274.8z"/>
</g>
</svg>
