<?xml version="1.0" encoding="utf-8"?>
<!-- Generator: Adobe Illustrator 16.0.4, SVG Export Plug-In . SVG Version: 6.00 Build 0)  -->
<!DOCTYPE svg PUBLIC "-//W3C//DTD SVG 1.1//EN" "http://www.w3.org/Graphics/SVG/1.1/DTD/svg11.dtd">
<svg version="1.1" id="Layer_1" xmlns="http://www.w3.org/2000/svg" xmlns:xlink="http://www.w3.org/1999/xlink" x="0px" y="0px"
	 width="34.649px" height="47.004px" viewBox="-6.885 -8.891 34.649 47.004" enable-background="new -6.885 -8.891 34.649 47.004"
	 xml:space="preserve">
<g>
	<path fill="#EF4B36" d="M-3.197,9.959c0-2.538,0.611-4.889,1.834-7.055C-0.11,0.705,1.57-1.038,3.676-2.351
		c2.138-1.313,4.46-1.985,6.933-1.985c2.506,0,4.827,0.641,6.933,1.923c2.104,1.285,3.787,3.023,5.006,5.192
		c2.477,4.306,2.599,9.225-0.363,15.304c-1.497,2.322-3.179,4.732-5.1,7.237c-1.896,2.507-3.423,4.431-4.584,5.773l-1.739,2.016
		c-0.215-0.183-0.489-0.46-0.823-0.795L7.89,30.177c-1.009-1.101-1.984-2.198-2.932-3.33s-1.986-2.535-3.176-4.155
		c-1.16-1.617-2.168-3.207-3.056-4.731C-2.555,15.119-3.197,12.462-3.197,9.959L-3.197,9.959L-3.197,9.959z M2.731,9.132
		c0,2.17,0.764,4.033,2.293,5.592c1.556,1.525,3.39,2.289,5.557,2.289c2.169,0,4.032-0.762,5.559-2.289
		c1.556-1.559,2.323-3.422,2.323-5.592c0-2.167-0.768-4.03-2.323-5.556c-1.526-1.526-3.392-2.294-5.559-2.294
		c-2.168,0-4.032,0.764-5.557,2.323C3.495,5.132,2.731,6.965,2.731,9.132L2.731,9.132z"/>
</g>
</svg>
