<?xml version="1.0" encoding="utf-8"?>
<!-- Generator: Adobe Illustrator 16.0.4, SVG Export Plug-In . SVG Version: 6.00 Build 0)  -->
<!DOCTYPE svg PUBLIC "-//W3C//DTD SVG 1.1//EN" "http://www.w3.org/Graphics/SVG/1.1/DTD/svg11.dtd">
<svg version="1.1" id="Layer_1" xmlns="http://www.w3.org/2000/svg" xmlns:xlink="http://www.w3.org/1999/xlink" x="0px" y="0px"
	 width="21.212px" height="28.774px" viewBox="61.626 83.481 21.212 28.774" enable-background="new 61.626 83.481 21.212 28.774"
	 xml:space="preserve">
<g>
	<path fill="#EF4B36" d="M61.835,94.663c0-1.914,0.461-3.687,1.383-5.322c0.944-1.658,2.211-2.972,3.801-3.963
		c1.613-0.99,3.364-1.497,5.229-1.497c1.89,0,3.641,0.483,5.23,1.451s2.856,2.28,3.777,3.916c1.866,3.248,1.959,6.958-0.276,11.543
		c-1.128,1.751-2.396,3.57-3.846,5.459c-1.43,1.89-2.582,3.341-3.457,4.355l-1.312,1.52c-0.162-0.138-0.37-0.346-0.622-0.599
		l-1.544-1.613c-0.761-0.83-1.497-1.659-2.211-2.511c-0.715-0.853-1.498-1.912-2.397-3.134c-0.875-1.22-1.635-2.419-2.304-3.57
		C62.319,98.555,61.835,96.551,61.835,94.663L61.835,94.663L61.835,94.663z M66.305,94.04c0,1.636,0.576,3.042,1.728,4.217
		c1.175,1.151,2.558,1.727,4.193,1.727c1.635,0,3.041-0.575,4.192-1.727c1.175-1.175,1.752-2.581,1.752-4.217
		c0-1.635-0.577-3.04-1.752-4.192c-1.151-1.151-2.558-1.729-4.192-1.729c-1.636,0-3.041,0.577-4.193,1.752
		C66.881,91.023,66.305,92.405,66.305,94.04L66.305,94.04z"/>
</g>
</svg>
