<svg xmlns="http://www.w3.org/2000/svg" width="21.211" height="28.773" viewBox="0 0 21.211 28.773"><path fill="#FFF" d="M16.53 10.424c0-1.635-.577-3.04-1.75-4.19-1.152-1.15-2.56-1.73-4.193-1.73-1.636 0-3.04.576-4.192 1.752-1.153 1.15-1.73 2.534-1.73 4.17 0 1.636.577 3.04 1.73 4.217 1.174 1.15 2.557 1.727 4.192 1.727 1.636 0 3.04-.574 4.192-1.727 1.173-1.177 1.75-2.583 1.75-4.22z"/><path fill="#129ADB" d="M19.613 5.632c-.92-1.637-2.188-2.947-3.776-3.916-1.588-.968-3.34-1.45-5.23-1.45-1.864 0-3.616.507-5.228 1.497-1.59.99-2.857 2.304-3.802 3.962C.656 7.36.195 9.132.195 11.045c0 1.89.484 3.894 1.45 6.036.67 1.15 1.43 2.35 2.305 3.57.898 1.223 1.68 2.28 2.396 3.134.715.854 1.45 1.682 2.21 2.512l1.546 1.612c.252.253.46.46.62.6l1.313-1.52c.875-1.014 2.027-2.465 3.457-4.355 1.45-1.89 2.718-3.708 3.846-5.46 2.234-4.583 2.142-8.293.275-11.54zm-13.218 9.01c-1.153-1.177-1.73-2.582-1.73-4.22 0-1.634.577-3.017 1.73-4.168 1.15-1.176 2.556-1.752 4.192-1.752 1.634 0 3.04.58 4.192 1.73 1.173 1.15 1.75 2.556 1.75 4.19 0 1.637-.577 3.042-1.75 4.218-1.152 1.152-2.558 1.727-4.193 1.727-1.635 0-3.018-.575-4.192-1.726z"/></svg>