<?xml version="1.0" encoding="utf-8"?>
<!-- Generator: Adobe Illustrator 16.0.4, SVG Export Plug-In . SVG Version: 6.00 Build 0)  -->
<!DOCTYPE svg PUBLIC "-//W3C//DTD SVG 1.1//EN" "http://www.w3.org/Graphics/SVG/1.1/DTD/svg11.dtd">
<svg version="1.1" id="Layer_1" xmlns="http://www.w3.org/2000/svg" xmlns:xlink="http://www.w3.org/1999/xlink" x="0px" y="0px"
	 width="34.648px" height="47.004px" viewBox="0 0 34.648 47.004" enable-background="new 0 0 34.648 47.004" xml:space="preserve">
<g>
	<circle fill="#FFFFFF" cx="17.231" cy="18.252" r="8"/>
	<path fill="#EF4B36" d="M3.522,19.074c0-2.538,0.611-4.889,1.834-7.055c1.253-2.199,2.933-3.942,5.039-5.255
		c2.138-1.313,4.46-1.985,6.933-1.985c2.506,0,4.827,0.641,6.934,1.923c2.104,1.285,3.787,3.023,5.006,5.192
		c2.477,4.306,2.598,9.225-0.363,15.304c-1.498,2.322-3.18,4.731-5.1,7.237c-1.896,2.507-3.424,4.431-4.584,5.772l-1.74,2.017
		c-0.215-0.184-0.489-0.461-0.823-0.795l-2.049-2.138c-1.009-1.101-1.984-2.198-2.932-3.329c-0.948-1.133-1.986-2.535-3.176-4.156
		c-1.16-1.616-2.169-3.207-3.057-4.73C4.164,24.234,3.522,21.577,3.522,19.074L3.522,19.074L3.522,19.074z M9.45,18.247
		c0,2.17,0.765,4.033,2.293,5.592c1.557,1.525,3.391,2.29,5.558,2.29c2.168,0,4.032-0.763,5.559-2.29
		c1.555-1.559,2.322-3.422,2.322-5.592c0-2.167-0.768-4.03-2.322-5.556c-1.527-1.526-3.393-2.294-5.559-2.294
		c-2.168,0-4.032,0.764-5.558,2.323C10.215,14.247,9.45,16.08,9.45,18.247L9.45,18.247z"/>
</g>
</svg>
