<?xml version="1.0" encoding="utf-8"?>
<!-- Generator: Adobe Illustrator 16.0.4, SVG Export Plug-In . SVG Version: 6.00 Build 0)  -->
<!DOCTYPE svg PUBLIC "-//W3C//DTD SVG 1.1//EN" "http://www.w3.org/Graphics/SVG/1.1/DTD/svg11.dtd">
<svg version="1.1" id="Layer_1" xmlns="http://www.w3.org/2000/svg" xmlns:xlink="http://www.w3.org/1999/xlink" x="0px" y="0px"
	 width="21.211px" height="28.773px" viewBox="0 0 21.211 28.773" enable-background="new 0 0 21.211 28.773" xml:space="preserve">
<g>
	<path fill="#129ADB" d="M0.195,11.047c0-1.914,0.461-3.688,1.383-5.322C2.523,4.067,3.79,2.753,5.379,1.762
		c1.612-0.99,3.364-1.497,5.229-1.497c1.89,0,3.641,0.483,5.229,1.451s2.856,2.279,3.776,3.916
		c1.867,3.248,1.959,6.958-0.275,11.543c-1.128,1.751-2.396,3.569-3.846,5.459c-1.43,1.89-2.582,3.341-3.457,4.354l-1.312,1.521
		c-0.162-0.139-0.369-0.347-0.621-0.6l-1.545-1.612c-0.761-0.83-1.496-1.659-2.211-2.512s-1.498-1.911-2.396-3.134
		c-0.875-1.22-1.635-2.419-2.305-3.569C0.679,14.939,0.195,12.935,0.195,11.047L0.195,11.047L0.195,11.047z M4.666,10.424
		c0,1.636,0.576,3.042,1.729,4.217c1.174,1.151,2.557,1.727,4.192,1.727c1.635,0,3.041-0.574,4.192-1.727
		c1.174-1.175,1.752-2.581,1.752-4.217c0-1.635-0.578-3.04-1.752-4.192c-1.151-1.15-2.559-1.729-4.192-1.729
		c-1.636,0-3.041,0.576-4.192,1.752C5.242,7.406,4.666,8.789,4.666,10.424L4.666,10.424z"/>
</g>
</svg>
